#N canvas 166 182 734 344 10;
#X obj 140 37 noise~;
#X obj 141 67 *~;
#X obj 276 81 vline~;
#X obj 20 177 dac~ 1 2;
#X obj 121 308 print word;
#N canvas 601 405 695 246 morsetp 0;
#N canvas 147 323 845 667 hittimer 0;
#X obj 58 98 env~ 1024 512;
#X obj 93 284 sel 0 1;
#X obj 67 326 timer;
#X obj 58 223 change;
#X obj 246 300 timer;
#X obj 244 263 sel 0;
#X obj 274 204 spigot;
#X msg 351 278 1;
#X msg 335 305 0;
#X obj 66 23 inlet~;
#X text 134 37 INPUT SIGNAL;
#X obj 243 59 inlet;
#X text 254 82 dB thresh;
#X obj 455 68 inlet;
#X obj 250 374 sel 0 1;
#X obj 357 61 inlet;
#X text 348 90 long hit dur;
#X obj 72 439 f;
#X obj 72 461 outlet;
#X obj 152 344 loadbang;
#X msg 142 394 0;
#X text 452 97 letter space;
#X obj 264 351 change;
#X obj 570 68 inlet;
#X text 577 97 word space;
#X obj 370 384 change;
#X obj 370 406 sel 0 1;
#X text 171 458 2 - long hit;
#X text 170 478 3 - short hit;
#X text 166 425 0 -long/word rest state;
#X text 172 440 1 - short/letter rest state;
#X msg 101 399 2;
#X msg 63 396 3;
#X msg 188 402 1;
#X obj 69 365 moses 200;
#X obj 252 326 > 650;
#X obj 370 362 > 1500;
#X obj 64 150 line;
#X obj 680 74 inlet;
#X text 691 103 smoothing;
#X obj 62 126 pack f 3;
#X obj 18 275 outlet;
#X text 26 251 db;
#X obj 66 46 *~;
#X obj 63 72 lop~ 5;
#X obj 64 181 > 20;
#X connect 0 0 40 0;
#X connect 1 0 2 1;
#X connect 1 0 4 0;
#X connect 1 0 7 0;
#X connect 1 1 2 0;
#X connect 2 0 34 0;
#X connect 3 0 1 0;
#X connect 4 0 35 0;
#X connect 4 0 36 0;
#X connect 5 0 4 1;
#X connect 6 0 5 0;
#X connect 7 0 6 1;
#X connect 8 0 6 1;
#X connect 9 0 43 0;
#X connect 9 0 43 1;
#X connect 11 0 45 1;
#X connect 13 0 35 1;
#X connect 14 1 33 0;
#X connect 15 0 34 1;
#X connect 17 0 18 0;
#X connect 19 0 20 0;
#X connect 20 0 17 0;
#X connect 22 0 14 0;
#X connect 23 0 36 1;
#X connect 25 0 26 0;
#X connect 26 1 20 0;
#X connect 26 1 8 0;
#X connect 31 0 17 0;
#X connect 32 0 17 0;
#X connect 33 0 17 0;
#X connect 34 0 32 0;
#X connect 34 1 31 0;
#X connect 35 0 22 0;
#X connect 36 0 25 0;
#X connect 37 0 45 0;
#X connect 38 0 40 1;
#X connect 40 0 37 0;
#X connect 40 0 41 0;
#X connect 43 0 44 0;
#X connect 44 0 0 0;
#X connect 45 0 3 0;
#X connect 45 0 6 0;
#X restore 45 97 pd hittimer;
#N canvas 37 358 771 583 lettermaker 0;
#X obj 233 169 f;
#X msg 268 136 0;
#X obj 272 176 + 1;
#X obj 110 66 t f f;
#X obj 181 219 array set \$0-letter;
#X obj 159 275 array get \$0-letter;
#X obj 222 251 + 1;
#X obj 332 216 array define \$0-letter 20;
#X obj 114 26 inlet;
#X obj 133 326 outlet;
#X text 176 26 input number durations;
#X text 231 303 output letter;
#X text 50 263 to ascii;
#X obj 134 304 list tosymbol;
#X obj 102 239 + 43;
#X obj 87 186 moses 2;
#X obj 168 95 sel 0 1 2 3;
#X msg 161 171 42;
#X text 36 138 using *(42) for space;
#X obj 319 98 loadbang;
#X connect 0 0 2 0;
#X connect 0 0 4 1;
#X connect 0 0 6 0;
#X connect 1 0 0 1;
#X connect 2 0 0 1;
#X connect 3 0 15 0;
#X connect 3 1 16 0;
#X connect 5 0 13 0;
#X connect 6 0 5 1;
#X connect 8 0 3 0;
#X connect 13 0 9 0;
#X connect 14 0 4 0;
#X connect 15 1 14 0;
#X connect 16 0 17 0;
#X connect 16 1 5 0;
#X connect 16 1 1 0;
#X connect 16 2 0 0;
#X connect 16 3 0 0;
#X connect 17 0 13 0;
#X connect 19 0 1 0;
#X restore 117 136 pd lettermaker;
#N canvas 771 551 606 503 lettersym 0;
#X obj 18 54 inlet;
#X obj 300 40 loadbang;
#X obj 8 117 text search \$0-morsetable;
#X obj 7 174 text get \$0-ltrtable;
#X obj 11 274 outlet;
#X msg 250 78 read src/dxk-morsetable.txt;
#X msg 248 150 read src/dxk-ltrtable.txt;
#X text 22 250 letter;
#X obj 199 476 outlet;
#X msg 235 202 read src/dxk-asciitable.txt;
#X text 148 458 word;
#X obj 69 347 text get \$0-asciitable;
#X obj 234 266 array define \$0-word 20;
#X obj 109 260 moses 1;
#X obj 106 291 t f b;
#X obj 242 320 f;
#X obj 268 360 + 1;
#X obj 325 384 + 1;
#X msg 285 298 0;
#X obj 145 398 bng 15 250 50 0 empty empty empty 17 7 0 10 -262144
-1 -1;
#X obj 162 388 array set \$0-word;
#X obj 417 289 loadbang;
#X obj 203 421 array get \$0-word;
#X obj 203 443 list tosymbol;
#X obj 260 122 text define \$0-morsetable;
#X obj 234 174 text define \$0-ltrtable;
#X obj 221 226 text define \$0-asciitable;
#X connect 0 0 2 0;
#X connect 1 0 5 0;
#X connect 1 0 6 0;
#X connect 1 0 9 0;
#X connect 2 0 3 0;
#X connect 2 0 13 0;
#X connect 3 0 4 0;
#X connect 5 0 24 0;
#X connect 6 0 25 0;
#X connect 9 0 26 0;
#X connect 11 0 20 0;
#X connect 13 0 18 0;
#X connect 13 0 19 0;
#X connect 13 1 14 0;
#X connect 14 0 11 0;
#X connect 14 1 15 0;
#X connect 15 0 16 0;
#X connect 15 0 17 0;
#X connect 15 0 20 1;
#X connect 16 0 15 1;
#X connect 17 0 22 1;
#X connect 18 0 15 1;
#X connect 19 0 22 0;
#X connect 21 0 18 0;
#X connect 22 0 23 0;
#X connect 23 0 8 0;
#X restore 119 155 pd lettersym;
#X obj 59 10 inlet~;
#X obj 99 186 outlet;
#X obj 194 187 outlet;
#X text 111 208 letter;
#X text 195 211 word;
#X obj 149 16 inlet;
#X text 157 34 db thresh;
#X obj 341 21 inlet;
#X obj 243 14 inlet;
#X text 234 43 long hit dur;
#X text 338 50 letter space;
#X obj 456 21 inlet;
#X text 463 50 word space;
#X obj 566 27 inlet;
#X text 577 56 smoothing;
#X obj 26 147 outlet;
#X text 57 121 db;
#X connect 0 0 18 0;
#X connect 0 1 1 0;
#X connect 1 0 2 0;
#X connect 2 0 4 0;
#X connect 2 1 5 0;
#X connect 3 0 0 0;
#X connect 8 0 0 1;
#X connect 10 0 0 3;
#X connect 11 0 0 2;
#X connect 14 0 0 4;
#X connect 16 0 0 5;
#X restore 109 198 pd morsetp;
#X obj 223 153 vsl 15 128 5 100 0 0 empty empty thresh 0 -9 0 10 -262144
-1 -1 8605 1;
#X floatatom 221 294 5 0 0 0 - - -, f 5;
#X obj 281 158 vsl 15 128 50 300 0 0 empty empty long_dur 0 -9 0 10
-262144 -1 -1 2200 1;
#X floatatom 281 294 5 0 0 0 - - -, f 5;
#X obj 346 158 vsl 15 128 100 500 0 0 empty empty letter_space 0 -9
0 10 -262144 -1 -1 7200 1;
#X floatatom 346 294 5 0 0 0 - - -, f 5;
#X obj 429 156 vsl 15 128 1150 1750 0 0 empty empty word_space 0 -9
0 10 -262144 -1 -1 8008 1;
#X floatatom 429 292 5 0 0 0 - - -, f 5;
#X msg 423 125 1500;
#X obj 501 152 vsl 15 128 1 20 0 0 empty empty smoothing 0 -9 0 10
-262144 -1 -1 4374 1;
#X floatatom 501 288 5 0 0 0 - - -, f 5;
#X msg 502 120 5;
#X obj 516 81 loadbang;
#X obj 148 236 tgl 15 0 empty empty empty 17 7 0 10 -262144 -1 -1 0
1;
#X obj 107 266 spigot;
#X obj 138 94 *~ 0;
#X obj 116 156 +~;
#X obj 194 12 tgl 15 0 empty empty empty 17 7 0 10 -262144 -1 -1 1
1;
#X obj 53 93 *~ 0;
#X obj 106 17 tgl 15 0 empty empty empty 17 7 0 10 -262144 -1 -1 0
1;
#X text 122 15 LIVE;
#X text 216 11 TEST;
#X obj 287 15 bng 15 250 50 0 empty empty empty 17 7 0 10 -262144 -1
-1;
#X obj 287 34 bng 15 250 50 0 empty empty empty 17 7 0 10 -262144 -1
-1;
#X text 306 9 SHORT;
#X text 311 32 LONG;
#X text 538 40 Morse Code Transcriber;
#X text 536 18 Derek X Kwan - 2016;
#X obj 41 19 adc~ 2;
#X floatatom 32 214 5 0 0 0 - - -, f 5;
#X symbolatom 13 271 10 0 0 0 - - -, f 10;
#X msg 278 60 1 3 \, 0 40 3;
#X msg 380 64 1 3 \, 0 125 3;
#X msg 286 126 100;
#X msg 350 127 250;
#X msg 244 123 60;
#X connect 0 0 1 0;
#X connect 1 0 21 0;
#X connect 2 0 1 1;
#X connect 5 0 35 0;
#X connect 5 1 36 0;
#X connect 5 2 20 0;
#X connect 6 0 7 0;
#X connect 6 0 5 1;
#X connect 8 0 9 0;
#X connect 8 0 5 2;
#X connect 10 0 11 0;
#X connect 10 0 5 3;
#X connect 12 0 13 0;
#X connect 12 0 5 4;
#X connect 14 0 12 0;
#X connect 15 0 16 0;
#X connect 15 0 5 5;
#X connect 17 0 15 0;
#X connect 18 0 41 0;
#X connect 18 0 39 0;
#X connect 18 0 40 0;
#X connect 18 0 14 0;
#X connect 18 0 17 0;
#X connect 19 0 20 1;
#X connect 20 0 4 0;
#X connect 21 0 22 0;
#X connect 22 0 3 0;
#X connect 22 0 3 1;
#X connect 22 0 5 0;
#X connect 23 0 21 1;
#X connect 24 0 22 0;
#X connect 25 0 24 1;
#X connect 28 0 37 0;
#X connect 29 0 38 0;
#X connect 34 0 24 0;
#X connect 37 0 2 0;
#X connect 38 0 2 0;
#X connect 39 0 8 0;
#X connect 40 0 10 0;
#X connect 41 0 6 0;
